<svg id="Capa_1" enable-background="new 0 0 512 512" height="512" viewBox="0 0 512 512" width="512" xmlns="http://www.w3.org/2000/svg"><g><g><path d="m256 370c-8.284 0-15 6.716-15 15v62c0 8.284 6.716 15 15 15s15-6.716 15-15v-62c0-8.284-6.716-15-15-15z" fill="#9d7552"/></g><path d="m256 370v92c8.284 0 15-6.716 15-15v-62c0-8.284-6.716-15-15-15z" fill="#9d5e4a"/><path d="m256 335c-17.921 0-32.5 14.58-32.5 32.5s14.579 32.5 32.5 32.5c17.92 0 32.5-14.58 32.5-32.5s-14.58-32.5-32.5-32.5z" fill="#ffef4a"/><g><path d="m256 65c17.92 0 32.5-14.58 32.5-32.5s-14.58-32.5-32.5-32.5c-17.921 0-32.5 14.58-32.5 32.5s14.579 32.5 32.5 32.5z" fill="#ffef4a"/><path d="m288.5 32.5c0-17.92-14.58-32.5-32.5-32.5v65c17.92 0 32.5-14.58 32.5-32.5z" fill="#ffb454"/></g><g><path d="m320.099 77.75c17.92 0 32.5-14.58 32.5-32.5s-14.58-32.5-32.5-32.5c-17.921 0-32.5 14.58-32.5 32.5s14.58 32.5 32.5 32.5z" fill="#ffb454"/></g><g><path d="m374.44 114.06c17.92 0 32.5-14.58 32.5-32.5s-14.58-32.5-32.5-32.5c-17.921 0-32.5 14.58-32.5 32.5s14.58 32.5 32.5 32.5z" fill="#ffb454"/></g><g><path d="m410.75 168.401c17.92 0 32.5-14.58 32.5-32.5s-14.58-32.5-32.5-32.5c-17.921 0-32.5 14.58-32.5 32.5s14.579 32.5 32.5 32.5z" fill="#ffb454"/></g><g><path d="m423.5 232.5c17.92 0 32.5-14.58 32.5-32.5s-14.58-32.5-32.5-32.5c-17.921 0-32.5 14.58-32.5 32.5s14.579 32.5 32.5 32.5z" fill="#ffb454"/></g><g><path d="m410.75 296.599c17.92 0 32.5-14.58 32.5-32.5s-14.58-32.5-32.5-32.5c-17.921 0-32.5 14.58-32.5 32.5 0 17.921 14.579 32.5 32.5 32.5z" fill="#ffb454"/></g><g><path d="m374.44 350.94c17.92 0 32.5-14.58 32.5-32.5s-14.58-32.5-32.5-32.5c-17.921 0-32.5 14.58-32.5 32.5 0 17.921 14.58 32.5 32.5 32.5z" fill="#ffb454"/></g><g><path d="m320.1 387.25c17.92 0 32.5-14.58 32.5-32.5s-14.58-32.5-32.5-32.5c-17.921 0-32.5 14.58-32.5 32.5s14.579 32.5 32.5 32.5z" fill="#ffb454"/></g><g><path d="m191.901 387.25c17.92 0 32.5-14.58 32.5-32.5s-14.58-32.5-32.5-32.5c-17.921 0-32.5 14.58-32.5 32.5s14.579 32.5 32.5 32.5z" fill="#ffef4a"/></g><g><path d="m137.56 350.94c17.92 0 32.5-14.58 32.5-32.5s-14.58-32.5-32.5-32.5c-17.921 0-32.5 14.58-32.5 32.5s14.579 32.5 32.5 32.5z" fill="#ffef4a"/></g><g><path d="m101.25 296.599c17.92 0 32.5-14.58 32.5-32.5s-14.58-32.5-32.5-32.5c-17.921 0-32.5 14.58-32.5 32.5s14.579 32.5 32.5 32.5z" fill="#ffef4a"/></g><g><path d="m88.5 232.5c17.92 0 32.5-14.58 32.5-32.5s-14.58-32.5-32.5-32.5c-17.921 0-32.5 14.58-32.5 32.5s14.579 32.5 32.5 32.5z" fill="#ffef4a"/></g><g><path d="m101.25 168.401c17.92 0 32.5-14.58 32.5-32.5s-14.58-32.5-32.5-32.5c-17.921 0-32.5 14.58-32.5 32.5s14.579 32.5 32.5 32.5z" fill="#ffef4a"/></g><g><path d="m137.56 114.06c17.92 0 32.5-14.58 32.5-32.5s-14.58-32.5-32.5-32.5c-17.921 0-32.5 14.58-32.5 32.5s14.579 32.5 32.5 32.5z" fill="#ffef4a"/></g><g><path d="m191.901 77.75c17.92 0 32.5-14.58 32.5-32.5s-14.58-32.5-32.5-32.5c-17.921 0-32.5 14.58-32.5 32.5s14.579 32.5 32.5 32.5z" fill="#ffef4a"/></g><path d="m256 335v65c17.92 0 32.5-14.58 32.5-32.5s-14.58-32.5-32.5-32.5z" fill="#ffb454"/><path d="m267.164 426.981c-2.845-3.169-6.904-4.981-11.164-4.981s-8.319 1.812-11.164 4.981c-7.918 8.824-26.336 31.119-26.336 47.519 0 20.678 16.822 37.5 37.5 37.5s37.5-16.822 37.5-37.5c0-16.399-18.418-38.694-26.336-47.519z" fill="#ffef4a"/><path d="m267.164 426.981c-2.845-3.169-6.904-4.981-11.164-4.981v90c20.678 0 37.5-16.822 37.5-37.5 0-16.399-18.418-38.694-26.336-47.519z" fill="#ffb454"/></g></svg>