<?xml version="1.0" encoding="iso-8859-1"?>
<!-- Generator: Adobe Illustrator 19.0.0, SVG Export Plug-In . SVG Version: 6.00 Build 0)  -->
<svg version="1.1" id="Capa_1" xmlns="http://www.w3.org/2000/svg" xmlns:xlink="http://www.w3.org/1999/xlink" x="0px" y="0px"
	 viewBox="0 0 512.002 512.002" style="enable-background:new 0 0 512.002 512.002;" xml:space="preserve">
<rect x="66.52" y="80.18" style="fill:#48C1E1;" width="50.26" height="30.693"/>
<path style="fill:#046699;" d="M127.146,75.176c0,2.75-2.25,5-5,5H61.154c-2.75,0-5-2.25-5-5V39.137c0-2.75,2.25-5,5-5h60.991
	c2.75,0,5,2.25,5,5L127.146,75.176L127.146,75.176z"/>
<g style="opacity:0.1;">
	<path d="M77.009,75.176V39.137c0-2.75,2.25-5,5-5H61.154c-2.75,0-5,2.25-5,5v36.039c0,2.75,2.25,5,5,5h20.854
		C79.259,80.176,77.009,77.926,77.009,75.176z"/>
</g>
<path style="fill:#A2DFF9;" d="M50.57,349.825c-0.477-0.846-0.751-1.723-0.751-2.626c0-6.655,13.663-12.049,30.515-12.049
	c5.98,0,11.552,0.684,16.258,1.857c-3.578-14.285-5.396-29.028-5.396-44.13c0-2.778,2.247-5.03,5.02-5.03h8.746
	c-0.123-1.147-0.191-2.311-0.191-3.49c0-14.381,9.426-26.554,22.423-30.657c-1.173-2.451-2.04-5.098-2.527-7.908
	c-2.397-13.835,5.006-27.105,17.198-32.73c-0.573-1.602-1.021-3.271-1.32-5.004c-1.955-11.277,2.604-22.183,10.961-28.876v-40.411
	c0-15.347-12.527-27.902-27.84-27.902h-64.03c-15.312,0-27.839,12.556-27.839,27.902v222.25
	C37.354,356.452,43.68,352.665,50.57,349.825z"/>
<path style="fill:#046699;" d="M127.192,253.701c-1.173-2.451-2.04-5.098-2.527-7.908c-2.397-13.835,5.006-27.105,17.198-32.73
	c-0.573-1.602-1.021-3.271-1.32-5.004c-1.955-11.277,2.604-22.183,10.961-28.876v-17.495H31.797v103.285h79.467
	C115.234,259.719,120.777,255.726,127.192,253.701z"/>
<path style="opacity:0.1;enable-background:new    ;" d="M50.57,349.825c-0.477-0.846-0.751-1.723-0.751-2.626
	c0-4.112,5.22-7.74,13.181-9.914V138.771c0-15.347,12.527-27.902,27.839-27.902H59.636c-15.312,0-27.839,12.556-27.839,27.902
	v222.25C37.354,356.452,43.68,352.665,50.57,349.825z"/>
<path style="fill:#EF5050;" d="M243.891,190.067c0.301,1.732,0.439,3.456,0.442,5.157c12.634,1.11,23.526,10.1,26.711,22.758
	c5.028-4.691,11.56-7.781,18.793-8.463c0.438-13.546,5.919-26.726,15.869-36.698c0.362-0.363,0.733-0.715,1.104-1.067
	c-2.295-13.132-8.474-25.709-18.572-35.831c-2.046-2.049-5.361-2.05-7.408,0l-41.922,42.018
	C241.363,181.463,243.109,185.559,243.891,190.067z"/>
<path style="fill:#89C947;" d="M292.877,209.371c14.63,0,26.962,9.824,30.811,23.246c1.023,0.578,2.013,1.213,2.953,1.916
	c4.024-6.071,10.438-10.546,18.185-11.896c2.064-0.359,4.113-0.47,6.121-0.368c0.716-0.645,1.422-1.304,2.108-1.991
	c0.197-0.198,0.385-0.402,0.579-0.602c1.972-5.359,5.328-10.045,9.634-13.625c6.759-13.605,7.647-29.703,1.843-44.343
	c-0.086-0.222-0.219-0.42-0.383-0.586c-0.166-0.166-0.363-0.297-0.585-0.385c-20.163-8.031-43.101-3.287-58.438,12.085
	c-9.95,9.973-15.431,23.152-15.869,36.698C290.838,209.425,291.852,209.371,292.877,209.371z"/>
<g>
	<path style="fill:#FFC502;" d="M390.777,250.874c6.824-6.839,15.287-11.379,24.305-13.413c0.453-2.152,0.707-4.378,0.707-6.666
		c0-17.748-14.355-32.137-32.064-32.137c-14.815,0-27.279,10.076-30.957,23.762c11.723,1.386,21.638,10.284,23.755,22.497
		c0.271,1.565,0.397,3.122,0.399,4.658c4.158,0.365,8.1,1.686,11.577,3.76C389.231,252.497,389.983,251.671,390.777,250.874z"/>
	<path style="fill:#FFC502;" d="M127.192,253.701c-12.997,4.102-22.423,16.275-22.423,30.657c0,1.18,0.068,2.343,0.191,3.49h45.659
		c-3.208-5.77-5.216-12.096-5.964-18.594C137.077,266.638,130.721,261.074,127.192,253.701z"/>
</g>
<path style="fill:#89C947;" d="M445.336,240.668c-0.08-0.203-0.201-0.385-0.354-0.538c-0.152-0.152-0.334-0.274-0.536-0.355
	c-18.519-7.375-39.583-3.019-53.669,11.098c-0.795,0.797-1.548,1.624-2.28,2.464c6.63,3.942,11.571,10.626,12.991,18.819
	c0.955,5.512,0.184,10.924-1.917,15.69h40.23C449.361,274.222,451.618,256.516,445.336,240.668z"/>
<path style="fill:#FFC502;" d="M127.192,253.701c-12.997,4.102-22.423,16.275-22.423,30.657c0,1.18,0.068,2.343,0.191,3.49h45.659
	c-3.208-5.77-5.216-12.096-5.964-18.594C137.077,266.638,130.721,261.074,127.192,253.701z"/>
<g>
	<path style="fill:#368C0E;" d="M147.848,245.08c0.08-0.204,0.201-0.386,0.354-0.538c0.152-0.152,0.334-0.273,0.537-0.354
		c18.518-7.375,39.583-3.019,53.668,11.098c1.702,1.706,3.26,3.517,4.674,5.41c-0.811-4.166-1.246-8.465-1.246-12.866
		c0-2.898,2.342-5.249,5.236-5.249h49.77c-0.012-0.356-0.027-0.712-0.027-1.071c0-9.292,3.939-17.658,10.23-23.526
		c-3.185-12.659-14.077-21.648-26.711-22.758c-0.003-1.701-0.142-3.425-0.442-5.157c-2.859-16.498-18.572-27.544-35.094-24.667
		c-8.576,1.493-15.676,6.448-20.133,13.169c-6.454-4.821-14.807-7.086-23.383-5.594c-16.524,2.877-27.599,18.585-24.738,35.082
		c0.299,1.733,0.747,3.403,1.32,5.004c-12.192,5.625-19.596,18.896-17.198,32.73c1.951,11.26,9.893,19.975,19.991,23.461
		C143.731,261.221,144.738,252.923,147.848,245.08z"/>
	<path style="fill:#368C0E;" d="M401.488,272.158c-2.166-12.495-12.491-21.521-24.566-22.582c-0.002-1.537-0.129-3.093-0.399-4.658
		c-2.583-14.902-16.775-24.878-31.696-22.28c-7.747,1.35-14.16,5.824-18.185,11.896c-0.94-0.703-1.93-1.338-2.953-1.916
		c0.809,2.825,1.253,5.806,1.253,8.892c0,0.359-0.016,0.715-0.027,1.071h9.753c2.893,0,5.237,2.351,5.237,5.249
		c0,14.982-4.922,28.833-13.225,40.019h72.892C401.672,283.082,402.443,277.67,401.488,272.158z"/>
</g>
<path style="fill:#F7931E;" d="M324.914,242.58c0.012-0.356,0.027-0.712,0.027-1.071c0-17.749-14.355-32.137-32.064-32.137
	c-17.707,0-32.064,14.388-32.064,32.137c0,0.359,0.016,0.715,0.027,1.071H324.914z"/>
<path style="fill:#89C947;" d="M207.08,260.695c-1.414-1.893-2.972-3.704-4.674-5.41c-14.085-14.117-35.15-18.473-53.668-11.098
	c-0.203,0.081-0.385,0.202-0.537,0.354c-0.152,0.152-0.273,0.334-0.354,0.538c-5.624,14.186-4.402,29.862,2.772,42.768h66.313
	c-0.066-1.196-0.188-2.387-0.339-3.573C212.024,277.212,208.742,269.242,207.08,260.695z"/>
<path style="fill:#EF5050;" d="M326.68,287.848c8.303-11.187,13.225-25.037,13.225-40.019c0-2.898-2.344-5.249-5.237-5.249H211.07
	c-2.895,0-5.236,2.351-5.236,5.249c0,14.982,4.922,28.833,13.225,40.019H326.68z"/>
<path style="fill:#FFFFFF;" d="M105.299,340.275c5.521-3.099,14.645-5.125,24.967-5.125c16.852,0,30.514,5.395,30.514,12.049
	c0,0.903-0.273,1.779-0.751,2.625c22.626,9.325,39.129,28.949,42.446,52.388L355.711,344c7.469-2.836,15.816-2.223,22.784,1.677
	c6.97,3.9,11.837,10.682,13.288,18.51l1.335,7.208l52.407-30.936c4.177-15.356,6.283-31.262,6.283-47.581
	c0-2.778-2.247-5.03-5.021-5.03H96.215c-2.772,0-5.02,2.252-5.02,5.03c0,15.102,1.818,29.845,5.396,44.13
	C100.012,337.861,102.977,338.972,105.299,340.275z"/>
<g style="opacity:0.1;">
	<path d="M105.299,340.275c4.991-2.801,12.929-4.72,22.031-5.064c-3.286-13.723-4.943-27.866-4.943-42.333
		c0-2.778,2.247-5.03,5.02-5.03H96.215c-2.772,0-5.02,2.252-5.02,5.03c0,15.102,1.818,29.845,5.396,44.13
		C100.012,337.861,102.977,338.972,105.299,340.275z"/>
</g>
<path style="fill:#EF5050;" d="M126.895,455.918l-0.259-1.394c-2.355-12.721,4.746-25.303,16.882-29.914l58.957-22.397
	c-3.317-23.439-19.82-43.064-42.446-52.388c-2.408,4.272-10.541,7.691-21.076,8.926c7.722,6.177,11.255,12.668,8.108,16.219
	c-4.166,4.704-18.47,2.47-31.944-4.988c-3.78-2.095-7.097-4.376-9.817-6.681c-2.719,2.305-6.033,4.586-9.816,6.681
	c-13.473,7.458-27.777,9.693-31.945,4.988c-3.145-3.551,0.389-10.042,8.107-16.219c-10.53-1.235-18.665-4.654-21.074-8.926
	c-25.38,10.459-43.07,33.873-43.07,61.1c0,36.97,32.598,66.94,72.807,66.94h49.986c5.027,0,9.936-0.469,14.676-1.36
	C135.825,473.51,128.719,465.771,126.895,455.918z"/>
<path style="fill:#F7931E;" d="M126.895,455.918c2.355,12.72,13.496,21.952,26.484,21.947l227.111-0.088
	c7.992-0.003,15.572-3.543,20.684-9.662c5.113-6.119,7.233-14.183,5.781-22.014l-15.172-81.915
	c-1.451-7.828-6.318-14.61-13.288-18.51c-6.968-3.899-15.315-4.513-22.784-1.677l-212.193,80.61
	c-12.136,4.611-19.237,17.193-16.882,29.914L126.895,455.918z"/>
<path style="opacity:0.1;enable-background:new    ;" d="M39,410.925c0-21.495,11.032-40.61,28.16-52.858
	c-8.322-1.577-14.535-4.599-16.59-8.242c-25.38,10.459-43.07,33.873-43.07,61.1c0,36.97,32.598,66.94,72.807,66.94h31.5
	C71.598,477.865,39,447.895,39,410.925z"/>
<path style="fill:#368C0E;" d="M160.779,347.2c0-6.655-13.662-12.049-30.514-12.049c-10.322,0-19.445,2.026-24.967,5.125
	c-5.519-3.099-14.641-5.125-24.965-5.125c-16.852,0-30.515,5.395-30.515,12.049c0,5.462,9.209,10.072,21.825,11.551
	c-7.719,6.177-11.252,12.668-8.107,16.219c4.168,4.705,18.473,2.47,31.945-4.988c3.783-2.095,7.098-4.376,9.816-6.681
	c2.721,2.305,6.037,4.586,9.817,6.681c13.475,7.458,27.778,9.692,31.944,4.988c3.146-3.551-0.387-10.042-8.108-16.219
	C151.573,357.271,160.779,352.661,160.779,347.2z"/>
<path style="fill:#89C947;" d="M504.387,390.308l-1.954-10.546c-0.673-3.641-4.183-6.046-7.839-5.376l-75.454,13.86l48.177-32.205
	c2.283-1.526,3.342-4.221,2.871-6.781c-0.133-0.711-0.383-1.408-0.756-2.07l-5.453-9.656c-0.886-1.572-2.375-2.724-4.125-3.189
	c-1.749-0.467-3.613-0.213-5.172,0.708l-61.563,36.342l12.018,64.891l70.611,12.689c1.791,0.322,3.64-0.093,5.117-1.149
	c1.479-1.057,2.468-2.668,2.734-4.462l1.625-10.902c0.112-0.75,0.096-1.492-0.035-2.199c-0.475-2.563-2.432-4.702-5.111-5.316
	l-56.545-12.97l75.455-13.861C502.647,397.444,505.06,393.95,504.387,390.308z"/>
<g style="opacity:0.1;">
	<path d="M405.594,438.754c-1.043,2.692-2.525,5.228-4.42,7.497c-5.111,6.119-12.691,9.659-20.684,9.662l-227.111,0.088
		c-11.188,0.004-20.988-6.853-25.001-16.881c-2.031,4.723-2.734,10.047-1.742,15.404l0.259,1.394
		c2.355,12.72,13.496,21.952,26.484,21.947l227.111-0.088c7.992-0.003,15.572-3.543,20.684-9.662
		c5.113-6.119,7.233-14.183,5.781-22.014L405.594,438.754z"/>
</g>
<path d="M164.775,221.844c0.044,0.001,0.086,0.001,0.13,0.001c4.083,0,7.427-3.275,7.496-7.374c0.077-4.589,3.849-8.271,8.482-8.191
	c2.313,0.036,4.446,0.996,6.007,2.704c2.794,3.059,7.539,3.273,10.596,0.479c3.058-2.793,3.273-7.538,0.479-10.596
	c-4.313-4.721-10.454-7.486-16.847-7.585c-12.859-0.165-23.497,10.087-23.715,22.936
	C157.333,218.36,160.634,221.774,164.775,221.844z"/>
<path d="M202.487,233.902c0.86,0.319,1.741,0.47,2.607,0.47c3.047,0,5.911-1.87,7.033-4.894c1.232-3.322,4.945-5.022,8.265-3.797
	c1.669,0.616,2.973,1.859,3.67,3.499c1.621,3.811,6.027,5.589,9.837,3.967c3.813-1.621,5.588-6.025,3.968-9.837
	c-2.299-5.404-6.774-9.669-12.281-11.702c-11.074-4.085-23.419,1.592-27.522,12.653
	C196.623,228.145,198.604,232.461,202.487,233.902z"/>
<path d="M273.838,176.777c1.922,0,3.844-0.734,5.309-2.202l7.07-7.084c2.926-2.932,2.921-7.681-0.011-10.606
	c-2.932-2.927-7.681-2.921-10.606,0.011l-7.07,7.084c-2.926,2.932-2.921,7.681,0.011,10.606
	C270.004,176.047,271.921,176.777,273.838,176.777z"/>
<path d="M239.545,253.709h-9.996c-4.143,0-7.5,3.358-7.5,7.5s3.357,7.5,7.5,7.5h9.996c4.143,0,7.5-3.358,7.5-7.5
	S243.688,253.709,239.545,253.709z"/>
<path d="M306.192,268.709h9.997c4.142,0,7.5-3.358,7.5-7.5s-3.358-7.5-7.5-7.5h-9.997c-4.143,0-7.5,3.358-7.5,7.5
	S302.05,268.709,306.192,268.709z"/>
<path d="M511.761,388.942l-1.953-10.542c-1.245-6.736-7.127-11.625-13.986-11.625c-0.861,0-1.729,0.079-2.583,0.236l-39.76,7.304
	l18.006-12.037c4.719-3.154,7.104-8.796,6.075-14.393c-0.286-1.533-0.822-3.004-1.598-4.381l-5.449-9.649
	c-1.867-3.315-5.051-5.778-8.726-6.754c-1.8-0.48-3.682-0.587-5.518-0.348c2.005-11.066,3.039-22.368,3.039-33.873
	c0-5.105-3.07-9.498-7.455-11.449c5.73-13.628,6.121-29.23,0.457-43.518c-0.459-1.162-1.141-2.199-2.024-3.083
	c-0.876-0.876-1.901-1.553-3.064-2.02c-6.787-2.703-13.92-4.073-21.201-4.073c-0.931,0-1.858,0.024-2.782,0.068
	c-1.039-20.933-18.364-37.644-39.514-37.644c-2.785,0-5.501,0.296-8.124,0.848c1.822-10.9,0.749-22.303-3.496-33.009
	c-0.456-1.177-1.141-2.233-2.072-3.179c-0.896-0.896-1.947-1.587-3.113-2.05c-7.311-2.912-14.995-4.388-22.839-4.388
	c-11.816,0-23.119,3.322-32.877,9.498c-3.565-10.327-9.444-20.022-17.658-28.255c-2.406-2.41-5.606-3.738-9.011-3.738
	s-6.605,1.328-9.014,3.74l-36.313,36.396c-6.72-5.994-15.563-9.577-25.161-9.577c-2.178,0-4.377,0.191-6.536,0.567
	c-7.823,1.362-15.022,5.191-20.541,10.799c-7.077-3.415-15.184-4.58-22.975-3.224c-1.714,0.298-3.377,0.718-4.991,1.23v-28.046
	c0-19.314-15.523-35.055-34.725-35.387V87.48c5.878-1.017,10.366-6.14,10.366-12.304V39.137c0-6.892-5.607-12.5-12.5-12.5H61.154
	c-6.893,0-12.5,5.608-12.5,12.5v36.039c0,6.164,4.488,11.287,10.366,12.304v15.904c-19.202,0.331-34.724,16.072-34.724,35.387
	v218.896C9.322,371.19,0,390.059,0,410.925c0,41.046,36.025,74.44,80.307,74.44l300.187-0.088
	c10.246-0.004,19.882-4.507,26.436-12.353c6.384-7.638,9.097-17.559,7.534-27.343l59.957,10.775c0.83,0.149,1.68,0.225,2.523,0.225
	c2.99,0,5.855-0.918,8.281-2.652c3.119-2.228,5.23-5.677,5.793-9.46l1.624-10.897c0.234-1.561,0.208-3.133-0.077-4.674
	c-1.032-5.572-5.275-9.993-10.81-11.261l-21.133-4.848l39.721-7.297c3.746-0.688,6.996-2.791,9.152-5.922
	C511.647,396.447,512.451,392.673,511.761,388.942z M426.021,243.735c4.515,0,8.954,0.715,13.222,2.124
	c3.814,11.614,2.386,24.141-3.586,34.489h-20.204l6.447-6.462c2.926-2.932,2.92-7.681-0.013-10.607s-7.682-2.921-10.606,0.012
	l-3.411,3.419c-1.599-5.265-4.391-9.979-8.061-13.846C407.253,246.953,416.391,243.735,426.021,243.735z M383.725,206.159
	c13.545,0,24.564,11.052,24.564,24.637c0,0.252-0.012,0.501-0.019,0.751c-7.906,2.571-15.193,6.866-21.408,12.699
	c-0.989-0.375-1.992-0.723-3.022-1.008c-2.194-11.852-10.181-21.352-20.732-25.789C367.487,210.665,375.085,206.159,383.725,206.159
	z M344.08,164.381c5.094,0,10.1,0.824,14.924,2.454c3.877,11.528,3.085,23.911-1.855,34.637c-4.061,3.699-7.356,8.229-9.608,13.321
	c-1.339,0.078-2.678,0.226-4.001,0.456c-5.877,1.023-11.357,3.573-15.943,7.271c-1.564-2.86-3.479-5.499-5.673-7.875l17.199-17.238
	c2.926-2.932,2.92-7.681-0.013-10.606c-2.932-2.926-7.681-2.921-10.607,0.012l-18.798,18.841c-3.577-1.691-7.443-2.867-11.506-3.417
	c1.755-8.95,6.098-17.383,12.816-24.117C319.854,169.26,331.597,164.381,344.08,164.381z M286.61,280.348h-6.501
	c-1.095-2.786-3.802-4.761-6.977-4.761s-5.882,1.976-6.977,4.761h-7.648c1.776-2.892,1.417-6.724-1.09-9.226
	c-2.932-2.926-7.681-2.921-10.607,0.011l-7.069,7.084c-0.635,0.636-1.123,1.361-1.482,2.131h-15.265
	c-5.717-8.773-9.206-19.128-9.619-30.268h118.986c-0.413,11.14-3.902,21.495-9.619,30.268h-15.885
	c-0.358-0.77-0.848-1.496-1.482-2.132l-7.068-7.084c-2.927-2.931-7.674-2.939-10.606-0.012
	C285.192,273.622,284.833,277.455,286.61,280.348z M269.167,235.08c2.827-10.477,12.384-18.208,23.71-18.208
	c11.327,0,20.884,7.732,23.711,18.208L269.167,235.08L269.167,235.08z M284.504,142.859c7.134,7.71,11.851,16.864,14.164,26.486
	c-3.829,4.161-7.01,8.759-9.519,13.652c-1.139-0.698-2.474-1.107-3.907-1.107h-9.994c-4.142,0-7.5,3.358-7.5,7.5s3.358,7.5,7.5,7.5
	h8.767c-0.493,2.071-0.876,4.167-1.154,6.279c-2.978,0.782-5.822,1.896-8.484,3.314c-4.999-8.627-13.277-15.056-23.085-17.635
	c-0.003-0.021-0.007-0.042-0.011-0.063c-0.588-3.394-1.614-6.614-3.013-9.607L284.504,142.859z M166.566,180.365
	c1.31-0.228,2.641-0.344,3.955-0.344c4.941,0,9.663,1.576,13.654,4.557c1.651,1.234,3.739,1.733,5.771,1.381
	c2.032-0.353,3.829-1.526,4.969-3.245c3.521-5.311,8.908-8.835,15.168-9.925c1.313-0.229,2.647-0.344,3.964-0.344
	c11.112,0,20.556,7.95,22.454,18.905c0.218,1.255,0.33,2.563,0.332,3.888c0.007,3.882,2.976,7.118,6.844,7.458
	c8.385,0.737,15.523,6.014,18.832,13.448c-4.43,5.317-7.501,11.809-8.667,18.936H211.07c-5.318,0-9.881,3.283-11.784,7.929
	c-9.41-6.409-20.5-9.862-32.122-9.862c-7.281,0-14.414,1.371-21.206,4.075c-1.152,0.46-2.182,1.139-3.06,2.017
	c-0.89,0.89-1.573,1.933-2.021,3.077c-1.726,4.353-2.877,8.828-3.499,13.331c-2.688-3.06-4.582-6.865-5.322-11.135
	c-1.764-10.176,3.563-20.308,12.95-24.64c3.528-1.628,5.229-5.68,3.92-9.337c-0.44-1.23-0.773-2.492-0.992-3.758
	C145.783,194.376,154.143,182.528,166.566,180.365z M171.284,278.297l2.046,2.051h-18.013c-4.044-9.382-4.658-20.061-1.375-30.077
	c4.274-1.411,8.711-2.125,13.222-2.125c11.301,0,21.932,4.417,29.933,12.436c1.064,1.067,2.055,2.185,2.986,3.34
	c1.271,5.754,3.224,11.251,5.74,16.425H194.52l-12.617-12.646c-2.927-2.931-7.676-2.939-10.606-0.012
	C168.364,270.616,168.358,275.365,171.284,278.297z M124.235,263.238c3.591,4.811,8.278,8.701,13.678,11.336
	c0.382,1.946,0.851,3.875,1.431,5.774h-26.737C113.799,273.083,118.169,266.89,124.235,263.238z M63.654,41.637h55.991v31.039
	H63.654V41.637z M109.279,87.676v15.693H74.021V87.676H109.279z M39.297,169.187H88c4.143,0,7.5-3.358,7.5-7.5s-3.357-7.5-7.5-7.5
	H39.297v-15.416c0-11.25,9.124-20.402,20.339-20.402h64.028c11.216,0,20.34,9.152,20.34,20.402v15.416H130
	c-4.143,0-7.5,3.358-7.5,7.5s3.357,7.5,7.5,7.5h14.004v6.657c-8.593,8.425-13.056,20.78-10.852,33.489
	c0.004,0.025,0.009,0.051,0.013,0.077c-12.032,8.255-18.443,22.931-15.89,37.664c0.149,0.86,0.336,1.706,0.54,2.543
	c-3.747,2.066-7.112,4.734-9.996,7.856H39.297V169.187z M39.297,272.472H99.11c-0.796,2.528-1.358,5.159-1.632,7.876h-1.264
	c-6.903,0-12.52,5.621-12.52,12.53c0,11.909,1.107,23.6,3.252,35.038c-2.155-0.173-4.365-0.266-6.613-0.266
	c-9.07,0-17.712,1.439-24.331,4.053c-10.125,3.998-12.924,9.675-13.535,13.603c-1.073,0.534-2.127,1.098-3.171,1.675v-74.509H39.297
	z M134.267,364.607c2.701,2.161,4.352,3.998,5.309,5.323c-0.09,0.001-0.184,0.002-0.279,0.002c-4.245,0-11.872-1.711-20.545-6.512
	c-3.229-1.789-6.204-3.81-8.604-5.843c-2.798-2.371-6.901-2.369-9.697,0.001c-2.4,2.035-5.374,4.055-8.6,5.84
	c-8.675,4.803-16.302,6.514-20.546,6.514c-0.097,0-0.19-0.001-0.281-0.002c0.956-1.325,2.607-3.163,5.309-5.325
	c2.361-1.89,3.356-5.014,2.523-7.921c-0.834-2.908-3.332-5.031-6.337-5.383c-7.319-0.858-11.947-2.721-14.114-4.077
	c2.715-1.691,9.579-4.574,21.931-4.574c10.23,0,17.707,2.151,21.293,4.165c2.281,1.28,5.062,1.28,7.343,0.001
	c3.588-2.014,11.066-4.165,21.296-4.165c12.353,0,19.216,2.884,21.93,4.574c-2.166,1.357-6.795,3.219-14.116,4.077
	c-3.005,0.353-5.504,2.475-6.337,5.384C130.909,359.594,131.904,362.718,134.267,364.607z M15,410.925
	c0-22.399,13.688-41.935,33.844-52.065c2.315,1.728,5.201,3.218,8.625,4.42c-1.358,2.319-2.304,4.813-2.527,7.414
	c-0.296,3.458,0.762,6.742,2.982,9.248c2.933,3.312,7.435,4.991,13.381,4.991c7.924,0,18.321-3.137,27.811-8.391
	c2.185-1.209,4.251-2.486,6.185-3.82c1.933,1.333,3.999,2.61,6.185,3.821c9.49,5.253,19.887,8.389,27.811,8.39h0.001
	c5.944,0,10.446-1.679,13.378-4.99c2.221-2.506,3.28-5.79,2.983-9.249c-0.223-2.601-1.169-5.095-2.527-7.414
	c3.424-1.203,6.311-2.693,8.626-4.42c15.985,8.034,27.896,21.985,32.143,38.588l-53.045,20.151
	c-15.527,5.9-24.608,22.004-21.592,38.294l0.258,1.39c0.892,4.817,2.773,9.238,5.401,13.082H80.307
	C44.297,470.365,15,443.701,15,410.925z M395.418,463.307c-3.698,4.428-9.141,6.968-14.931,6.97l-7.872,0.003l-4.918-26.555
	c-0.755-4.073-4.666-6.766-8.741-6.009c-4.072,0.754-6.763,4.667-6.009,8.74l4.414,23.829l-25.806,0.01l-3.325-17.957
	c-0.755-4.073-4.667-6.763-8.741-6.009c-4.072,0.754-6.763,4.667-6.009,8.74l2.82,15.232l-60.025,0.023l-4.518-24.388
	c-0.756-4.073-4.666-6.763-8.741-6.008c-4.073,0.754-6.763,4.668-6.009,8.741l4.013,21.661l-87.644,0.034c-0.002,0-0.004,0-0.006,0
	c-9.372,0-17.404-6.65-19.102-15.816l-0.258-1.39c-1.695-9.156,3.423-18.213,12.17-21.537l29.477-11.198l2.196,11.852
	c0.669,3.611,3.821,6.135,7.365,6.135c0.454,0,0.914-0.042,1.376-0.127c4.072-0.755,6.762-4.668,6.007-8.741l-2.693-14.533
	l43.755-16.622c3.872-1.471,5.819-5.803,4.348-9.675c-1.471-3.873-5.808-5.819-9.674-4.348l-20.361,7.735
	c-5.712-20.223-20.386-37.116-39.845-46.794c-0.611-3.928-3.41-9.605-13.534-13.603c-6.619-2.614-15.261-4.053-24.331-4.053
	c-6.242,0-12.203,0.689-17.465,1.944v-4.53c0-4.142-3.357-7.5-7.5-7.5c-1.751,0-3.357,0.604-4.634,1.61
	c-1.183-7.823-1.845-15.769-1.955-23.827H343c4.143,0,7.5-3.358,7.5-7.5s-3.357-7.5-7.5-7.5h-3.069
	c4.776-9.836,7.474-20.864,7.474-32.519c0-6.617-5.063-12.068-11.515-12.687c2.809-2.649,6.315-4.435,10.223-5.116
	c1.145-0.199,2.307-0.3,3.455-0.3c9.683,0,17.911,6.927,19.564,16.469c0.191,1.105,0.289,2.245,0.29,3.39
	c0.005,3.884,2.975,7.122,6.844,7.462c8.963,0.787,16.296,7.528,17.833,16.392c0.408,2.357,0.357,4.683-0.052,6.909H386
	c-4.143,0-7.5,3.358-7.5,7.5s3.357,7.5,7.5,7.5h58.292c-0.186,13.758-1.958,27.197-5.263,40.236l-40.646,23.994
	c-2.486-8.652-8.264-15.991-16.225-20.447c-8.929-4.997-19.54-5.778-29.11-2.143l-83.711,31.802
	c-3.873,1.471-5.819,5.803-4.348,9.675c1.471,3.873,5.807,5.817,9.674,4.348l11.028-4.189l3.424,18.487
	c0.669,3.611,3.821,6.136,7.366,6.136c0.453,0,0.913-0.042,1.375-0.127c4.072-0.754,6.763-4.667,6.009-8.74l-3.921-21.17
	l58.429-22.197c5.414-2.056,11.412-1.615,16.459,1.21c5.038,2.819,8.528,7.679,9.576,13.331l15.173,81.915
	C400.627,453.116,399.11,458.889,395.418,463.307z M422.178,404.601c-3.499,0.643-6.064,3.655-6.143,7.212
	c-0.078,3.557,2.354,6.679,5.821,7.474l55.84,12.808l-1.395,9.359l-64.734-11.633l-10.119-54.634l56.384-33.284l4.697,8.317
	l-47.558,31.791c-2.957,1.977-4.119,5.759-2.781,9.055c1.337,3.296,4.807,5.2,8.305,4.557l74.706-13.723l1.664,8.98L422.178,404.601
	z"/>
<g>
</g>
<g>
</g>
<g>
</g>
<g>
</g>
<g>
</g>
<g>
</g>
<g>
</g>
<g>
</g>
<g>
</g>
<g>
</g>
<g>
</g>
<g>
</g>
<g>
</g>
<g>
</g>
<g>
</g>
</svg>
