<?xml version="1.0" encoding="iso-8859-1"?>
<!-- Generator: Adobe Illustrator 19.0.0, SVG Export Plug-In . SVG Version: 6.00 Build 0)  -->
<svg version="1.1" id="Capa_1" xmlns="http://www.w3.org/2000/svg" xmlns:xlink="http://www.w3.org/1999/xlink" x="0px" y="0px"
	 viewBox="0 0 512.001 512.001" style="enable-background:new 0 0 512.001 512.001;" xml:space="preserve">
<circle style="fill:#FFC943;" cx="256.287" cy="283.107" r="174.028"/>
<path style="fill:#30995B;" d="M247.941,327.631c127.391-47.645,254.056-47.645,254.056-47.645l-0.049,222.011
	c0,0-85.123,0-188.449,0L247.941,327.631z"/>
<path style="fill:#ACD670;" d="M10.066,278.223c0,0,282.647-16.044,409.995,223.775c-81.991,0-409.995,0-409.995,0
	S10.066,278.223,10.066,278.223z"/>
<path d="M176.311,371.81l-0.654-0.417c-4.66-2.965-10.841-1.589-13.805,3.07c-2.964,4.66-1.59,10.841,3.07,13.805l0.626,0.399
	c1.667,1.064,3.53,1.573,5.372,1.573c3.3,0,6.53-1.632,8.438-4.62C182.33,380.965,180.966,374.782,176.311,371.81z"/>
<path d="M509.069,272.917c-1.875-1.876-4.419-2.93-7.072-2.93c-2.225,0-25.935,0.1-62.232,3.854
	c-1.877-38.656-15.536-74.912-39.803-105.36c-25.414-31.886-61.114-54.7-100.524-64.241c-5.367-1.296-10.773,1.999-12.072,7.366
	c-1.299,5.368,1.999,10.773,7.366,12.072c71.498,17.309,122.092,79.437,125.12,152.456c-47.871,6.073-111.27,18.141-175.414,42.131
	c-0.474,0.177-0.919,0.397-1.348,0.635c-22.975-11.167-47.33-20.628-72.91-28.3c-28.313-8.491-54.852-13.841-77.896-17.192
	c4.185-71.7,54.735-132.723,124.978-149.73c5.368-1.3,8.666-6.705,7.366-12.072c-1.3-5.368-6.709-8.667-12.072-7.366
	c-78.375,18.976-134.898,86.785-140.146,166.645c-36.975-3.998-61.201-2.742-62.91-2.646c-5.294,0.3-9.433,4.681-9.433,9.984
	v223.774c0,5.523,4.477,10,10,10h491.883c5.522,0,10.048-4.476,10.049-9.998V279.989
	C511.998,277.337,510.945,274.793,509.069,272.917z M346.919,389.751c71.382-30.139,127.582-34.167,145.062-34.65l-0.01,46.303
	c-18.608,1.181-60.374,6.364-107.44,28.722C372.909,415.793,360.361,402.323,346.919,389.751z M491.995,290.233l-0.01,44.83
	c-19.603,0.395-81.941,4.655-161.595,40.054c-7.189-6.019-14.602-11.806-22.243-17.35c-13.075-9.487-26.819-18.266-41.165-26.341
	C365.52,297.512,461.453,291.348,491.995,290.233z M20.065,395.516c9.641,4.073,23.811,10.791,39.663,20.699
	c23.467,14.668,54.997,39.219,79.142,75.783H20.065V395.516z M313.5,491.998h-13.993c-26.235-39.045-58.551-73.162-96.161-101.437
	c-4.415-3.32-10.684-2.43-14.002,1.984c-3.319,4.415-2.431,10.684,1.984,14.002c32.192,24.202,60.316,52.894,83.823,85.451H162.426
	c-26.909-45.925-64.98-75.873-92.658-93.092c-21.623-13.452-40.105-21.313-49.703-24.963v-43.876
	c19.975,3.741,64.574,14.333,114.796,40.771c1.486,0.783,3.079,1.153,4.65,1.153c3.593,0,7.067-1.943,8.857-5.344
	c2.573-4.887,0.697-10.934-4.19-13.507C88.052,323.595,39.449,313.014,20.065,309.71v-21.691
	c21.842-0.014,79.044,2.047,145.027,21.936c106.165,32,186.136,93.199,237.958,182.043H313.5z M426.025,491.998
	c-8.774-15.982-18.451-31.201-28.994-45.633c41.186-18.777,77.984-23.626,94.934-24.873l-0.016,70.505H426.025z"/>
<path d="M256,119.08h0.292c5.523,0,10-4.477,10-10s-4.477-10-10-10H256c-5.523,0-10,4.477-10,10S250.477,119.08,256,119.08z"/>
<path d="M256,85.17c5.523,0,10-4.477,10-10V10.003c0-5.523-4.477-10-10-10c-5.523,0-10,4.477-10,10V75.17
	C246,80.693,250.477,85.17,256,85.17z"/>
<path d="M403.013,146.064c2.559,0,5.119-0.977,7.071-2.929l44.204-44.204c3.905-3.905,3.905-10.237,0-14.142s-10.237-3.905-14.142,0
	l-44.204,44.204c-3.905,3.905-3.905,10.237,0,14.142C397.895,145.088,400.454,146.064,403.013,146.064z"/>
<path d="M167.198,94.822c1.595,3.852,5.318,6.176,9.243,6.176c1.275,0,2.572-0.245,3.823-0.764
	c5.103-2.114,7.526-7.963,5.412-13.066l-23.923-57.753c-2.113-5.103-7.963-7.526-13.065-5.412
	c-5.103,2.114-7.525,7.963-5.412,13.066L167.198,94.822z"/>
<path d="M331.736,100.235c1.251,0.519,2.547,0.764,3.823,0.764c3.924,0,7.647-2.325,9.243-6.176l23.923-57.753
	c2.113-5.103-0.31-10.952-5.412-13.066c-5.1-2.114-10.951,0.31-13.065,5.412l-23.925,57.753
	C324.21,92.271,326.633,98.121,331.736,100.235z"/>
<path d="M6.176,190.421l53.916,22.333c1.251,0.519,2.547,0.764,3.823,0.764c3.924,0,7.647-2.325,9.243-6.176
	c2.113-5.102-0.31-10.952-5.412-13.065L13.83,171.944c-5.102-2.113-10.951,0.309-13.065,5.412
	C-1.35,182.457,1.073,188.307,6.176,190.421z"/>
<path d="M438.842,207.342c1.595,3.851,5.318,6.176,9.243,6.176c1.275,0,2.572-0.245,3.823-0.764l53.916-22.333
	c5.103-2.113,7.526-7.963,5.412-13.065c-2.113-5.103-7.964-7.526-13.065-5.412l-53.916,22.333
	C439.152,196.389,436.729,202.239,438.842,207.342z"/>
<path d="M101.916,143.135c1.953,1.953,4.512,2.929,7.071,2.929c2.559,0,5.119-0.977,7.071-2.929c3.905-3.905,3.906-10.237,0-14.142
	L71.855,84.79c-3.905-3.906-10.237-3.905-14.142,0s-3.906,10.237,0,14.142L101.916,143.135z"/>
<g>
</g>
<g>
</g>
<g>
</g>
<g>
</g>
<g>
</g>
<g>
</g>
<g>
</g>
<g>
</g>
<g>
</g>
<g>
</g>
<g>
</g>
<g>
</g>
<g>
</g>
<g>
</g>
<g>
</g>
</svg>
