<svg id="Capa_1" enable-background="new 0 0 511.98 511.98" height="512" viewBox="0 0 511.98 511.98" width="512" xmlns="http://www.w3.org/2000/svg"><g><g><g><path d="m481.585 342.332c-2.982 2.982-6.029 2.86-9.136 5.634-45.315 40.451-103.442 58.731-160.337 54.839-50.811-3.476-103.638-24.635-142.478-63.478-83.775-83.781-85.22-220.25-3.159-305.71 2.734-2.847 5.526-3.604 8.372-6.27 8.321-7.794-.493-21.359-11.032-17.01-5.391 2.225-7.722 2.64-12.983 5.245-24.483 12.128-47.44 28.384-67.83 48.775-100.685 100.685-100.685 263.927 0 364.612 46.526 46.526 106.409 71.552 167.305 75.08 70.888 4.106 139.148-20.92 193.307-75.08 24.779-24.779 44.454-53.349 57.032-83.842 4.355-10.559-6.22-16.332-14.029-7.996-1.641 1.755-3.319 3.489-5.032 5.201z" fill="#ffe177"/><path d="m439.273 145.925c-3.552-50.088-35.306-88.619-86.298-88.619-5.098 0-10.103-.604-14.987.158-2.39.373-4.752.833-7.081 1.378-17.399-16.967-41.175-27.426-67.397-27.426-53.322 0-96.548 43.226-96.548 96.548s43.226 96.548 96.548 96.548c7.593 0 14.98-.879 22.068-2.536.321.313.642.627.968.936 3.108 43.826 35.465 79.572 77.666 87.823 6.029 1.179 12.258.796 18.632.796 53.322 0 86.548-42.226 86.548-95.548 0-27.584-11.57-52.464-30.119-70.058z" fill="#eef5f6"/><path d="m230.183 283.62c0 11.745-8.521 20.267-20.267 20.267-2.455 0-4.813.584-7.008-.182-8.302-2.896-14.259-10.795-14.259-20.085s5.957-17.189 14.259-20.085c2.194-.766 4.552-.182 7.008-.182 11.745.001 20.267 8.522 20.267 20.267z" fill="#eef5f6"/><path d="m147.848 25.347c-2.846 2.666-5.638 5.422-8.372 8.27-82.061 85.46-80.616 221.929 3.159 305.71 46.475 46.478 108.68 67.629 169.478 63.47-50.811-3.476-100.638-24.628-139.478-63.47-83.775-83.781-85.22-220.25-3.159-305.71 2.734-2.847 5.526-5.604 8.372-8.27 8.321-7.794-.493-21.359-11.032-17.01-5.391 2.224-10.718 4.649-15.978 7.255.806 3.248.069 6.891-2.99 9.755z" fill="#ffc344"/><path d="m486.619 334.132c-1.643 1.754-3.321 3.488-5.034 5.201-2.983 2.983-6.037 5.85-9.145 8.624-12.554 29.429-30.815 57.003-54.825 81.013-46.526 46.525-106.41 71.534-167.306 75.062 70.888 4.106 143.147-20.902 197.306-75.062 24.779-24.779 43.454-53.349 56.032-83.842 4.356-10.56-9.219-19.332-17.028-10.996z" fill="#ffc344"/><g><path d="m449.273 145.925c-3.552-50.088-45.306-89.619-96.298-89.619-5.098 0-10.101.405-14.985 1.167 43.957 6.865 78.087 43.382 81.284 88.452 18.549 17.594 30.119 42.474 30.119 70.058 0 48.216-35.345 88.173-81.537 95.385 4.885.762 9.89 1.163 14.989 1.163 53.322 0 96.548-43.226 96.548-96.548-.001-27.584-11.571-52.464-30.12-70.058z" fill="#deecf1"/></g><path d="m209.916 262.354c-2.456 0-4.805.438-7 1.204 8.301 2.897 14.267 10.774 14.267 20.063s-5.966 17.166-14.267 20.063c2.195.766 4.544 1.204 7 1.204 11.745 0 21.267-9.522 21.267-21.267 0-11.746-9.522-21.267-21.267-21.267z" fill="#deecf1"/><path d="m328.388 288.987c0 15.669-11.702 27.371-27.372 27.371-3.521 0-6.891.359-10.002-.813-10.734-4.044-18.37-14.41-18.37-26.558 0-11.752 7.145-21.835 17.328-26.142 3.394-1.436 7.126-1.23 11.044-1.23 15.669 0 27.372 11.703 27.372 27.372z" fill="#eef5f6"/><path d="m301.016 260.615c-3.521 0-6.889.646-10 1.818 10.734 4.045 18.371 14.405 18.371 26.553 0 12.149-7.638 22.509-18.371 26.553 3.111 1.172 6.479 1.818 10 1.818 15.669 0 28.371-12.702 28.371-28.372.001-15.668-12.702-28.37-28.371-28.37z" fill="#deecf1"/></g></g><g><path d="m225.781 169.979c1.311 2.42 3.842 3.927 6.594 3.927h48.145c4.142 0 7.5-3.357 7.5-7.5s-3.358-7.5-7.5-7.5h-34.306l39.469-60.574c1.503-2.306 1.622-5.249.31-7.668-1.311-2.42-3.842-3.927-6.594-3.927h-45.543c-4.142 0-7.5 3.357-7.5 7.5s3.358 7.5 7.5 7.5h31.705l-39.469 60.574c-1.503 2.305-1.622 5.249-.311 7.668z"/><path d="m292.018 201.634c1.311 2.42 3.842 3.927 6.594 3.927h48.145c4.142 0 7.5-3.357 7.5-7.5s-3.358-7.5-7.5-7.5h-34.307l39.469-60.574c1.502-2.306 1.622-5.249.31-7.668-1.311-2.42-3.842-3.927-6.594-3.927h-45.543c-4.142 0-7.5 3.357-7.5 7.5s3.358 7.5 7.5 7.5h31.705l-39.469 60.574c-1.502 2.306-1.621 5.249-.31 7.668z"/><path d="m358.255 233.289c1.311 2.42 3.842 3.927 6.594 3.927h48.145c4.142 0 7.5-3.357 7.5-7.5 0-4.142-3.358-7.5-7.5-7.5h-34.306l39.469-60.574c1.502-2.306 1.622-5.249.31-7.668-1.311-2.42-3.842-3.927-6.594-3.927h-45.544c-4.142 0-7.5 3.357-7.5 7.5s3.358 7.5 7.5 7.5h31.705l-39.469 60.574c-1.502 2.306-1.622 5.249-.31 7.668z"/><path d="m181.16 283.611c0 15.862 12.905 28.767 28.767 28.767s28.767-12.904 28.767-28.767c0-15.862-12.905-28.767-28.767-28.767s-28.767 12.904-28.767 28.767zm42.533 0c0 7.591-6.176 13.767-13.767 13.767s-13.767-6.176-13.767-13.767 6.176-13.767 13.767-13.767c7.592 0 13.767 6.176 13.767 13.767z"/><path d="m88.317 69.651c23.515-23.515 50.892-41.814 81.371-54.392 1.779-.731 2.855.2 3.444 1.113.831 1.29.696 2.465-.401 3.491-2.947 2.762-5.859 5.638-8.654 8.549-38.461 40.053-60.685 92.834-62.58 148.62-.141 4.14 3.101 7.61 7.241 7.751 4.151.137 7.609-3.101 7.75-7.241 1.769-52.086 22.512-101.358 58.408-138.741 2.613-2.721 5.334-5.409 8.089-7.99 6.348-5.945 7.482-15.221 2.758-22.558-4.746-7.372-13.702-10.195-21.778-6.859-32.316 13.334-61.336 32.73-86.255 57.649-49.191 49.194-76.782 114.587-77.687 184.136-.903 69.416 24.836 135.375 72.479 185.728 1.475 1.559 3.46 2.346 5.449 2.346 1.85 0 3.703-.681 5.153-2.052 3.009-2.847 3.14-7.594.293-10.603-44.945-47.503-69.228-109.731-68.375-175.224.854-65.616 26.884-127.312 73.295-173.723z"/><path d="m503.751 326.218c-7.343-4.727-16.635-3.586-22.596 2.777-1.575 1.682-3.211 3.372-4.862 5.023-39.846 39.846-92.823 61.789-149.173 61.788s-109.327-21.946-149.171-61.793c-33.845-33.848-54.652-76.971-60.171-124.706-.476-4.115-4.201-7.074-8.312-6.589-4.115.475-7.065 4.197-6.589 8.312 5.827 50.4 28.721 97.843 64.464 133.589 42.678 42.681 99.421 66.187 159.778 66.188h.004c60.353 0 117.1-23.505 159.777-66.182 1.767-1.768 3.518-3.577 5.203-5.376 1.299-1.389 2.636-.993 3.528-.419.904.582 1.827 1.649 1.094 3.427-12.577 30.491-30.881 57.877-54.402 81.398-44.126 44.127-102.728 70.064-165.008 73.032-61.869 2.934-122.235-16.892-170.005-55.863-3.211-2.618-7.935-2.141-10.553 1.07-2.618 3.21-2.139 7.934 1.07 10.553 47.35 38.63 106.372 59.527 167.436 59.527 4.245 0 8.504-.102 12.766-.305 66.016-3.146 128.131-30.638 174.901-77.407 24.927-24.928 44.328-53.958 57.663-86.286 3.329-8.073.516-17.021-6.842-21.758z"/><path d="m263.52 232.001c5.476 0 10.94-.429 16.326-1.277 1.235 8.737 3.564 17.21 6.961 25.326-12.726 5.517-21.653 18.196-21.653 32.927 0 19.779 16.092 35.871 35.872 35.871 13.287 0 24.901-7.267 31.1-18.03 12.22 6.822 25.8 11.162 39.722 12.628.267.028.532.042.794.042 3.789 0 7.044-2.863 7.45-6.716.434-4.119-2.555-7.811-6.674-8.244-12.94-1.362-25.537-5.627-36.669-12.369.093-1.049.149-2.109.149-3.181 0-19.485-15.618-35.38-34.992-35.85-4.463-9.693-7.108-20.018-7.869-30.756-.334-4.704-5.513-8.798-10.157-7.709-6.638 1.552-13.488 2.339-20.36 2.339-49.101 0-89.048-39.946-89.048-89.048 0-49.101 39.947-89.048 89.048-89.048 23.357 0 45.434 8.983 62.161 25.295 1.833 1.788 4.453 2.518 6.944 1.934 6.639-1.552 13.489-2.339 20.36-2.339 46.517 0 85.53 36.304 88.817 82.649.133 1.87.96 3.622 2.32 4.911 17.914 16.992 27.78 39.94 27.78 64.617 0 20.444-6.736 39.668-19.481 55.594-12.377 15.467-29.74 26.491-48.89 31.043-4.03.958-6.52 5.001-5.563 9.031.819 3.447 3.896 5.768 7.29 5.768.574 0 1.158-.066 1.741-.205 22.387-5.321 42.677-18.2 57.133-36.265 14.684-18.348 22.77-41.42 22.77-64.966 0-27.866-10.767-53.847-30.383-73.479-2.48-25.096-13.941-48.314-32.472-65.649-19.335-18.088-44.572-28.05-71.063-28.05-6.655 0-13.295.633-19.795 1.885-19.152-17.297-43.734-26.774-69.67-26.774-57.372 0-104.048 46.676-104.048 104.048.001 57.371 46.677 104.047 104.049 104.047zm58.378 56.976c0 11.509-9.363 20.871-20.871 20.871-11.509 0-20.872-9.362-20.872-20.871s9.363-20.872 20.872-20.872 20.871 9.363 20.871 20.872z"/></g></g></svg>