<svg height="512pt" viewBox="0 -2 512 511" width="512pt" xmlns="http://www.w3.org/2000/svg"><g fill="#a4f7c5"><path d="m149.324219 33.128906c0 12.886719-10.449219 23.339844-23.339844 23.339844s-23.339844-10.453125-23.339844-23.339844c0-12.890625 10.449219-23.34375 23.339844-23.34375s23.339844 10.453125 23.339844 23.34375zm0 0"/><path d="m105.828125 50.105469c0 12.890625-10.449219 23.339843-23.339844 23.339843-12.886719 0-23.339843-10.449218-23.339843-23.339843s10.453124-23.339844 23.339843-23.339844c12.890625 0 23.339844 10.449219 23.339844 23.339844zm0 0"/><path d="m55.964844 126.488281c0 12.890625-10.449219 23.339844-23.339844 23.339844s-23.339844-10.449219-23.339844-23.339844 10.449219-23.339843 23.339844-23.339843 23.339844 10.449218 23.339844 23.339843zm0 0"/><path d="m72.945312 82.992188c0 12.890624-10.449218 23.339843-23.339843 23.339843s-23.339844-10.449219-23.339844-23.339843c0-12.890626 10.449219-23.339844 23.339844-23.339844s23.339843 10.449218 23.339843 23.339844zm0 0"/><path d="m409.355469 33.128906c0 12.886719-10.449219 23.339844-23.339844 23.339844s-23.339844-10.453125-23.339844-23.339844c0-12.890625 10.449219-23.34375 23.339844-23.34375s23.339844 10.453125 23.339844 23.34375zm0 0"/><path d="m452.851562 50.105469c0 12.890625-10.453124 23.339843-23.339843 23.339843-12.890625 0-23.339844-10.449218-23.339844-23.339843s10.449219-23.339844 23.339844-23.339844c12.886719 0 23.339843 10.449219 23.339843 23.339844zm0 0"/><path d="m502.714844 126.488281c0 12.890625-10.449219 23.339844-23.339844 23.339844s-23.339844-10.449219-23.339844-23.339844 10.449219-23.339843 23.339844-23.339843 23.339844 10.449218 23.339844 23.339843zm0 0"/><path d="m485.734375 82.992188c0 12.890624-10.449219 23.339843-23.339844 23.339843s-23.339843-10.449219-23.339843-23.339843c0-12.890626 10.449218-23.339844 23.339843-23.339844s23.339844 10.449218 23.339844 23.339844zm0 0"/><path d="m149.324219 293.382812c0 12.890626-10.449219 23.339844-23.339844 23.339844s-23.339844-10.449218-23.339844-23.339844c0-12.890624 10.449219-23.339843 23.339844-23.339843s23.339844 10.449219 23.339844 23.339843zm0 0"/><path d="m195.902344 33.128906c0 12.886719-10.449219 23.339844-23.339844 23.339844s-23.339844-10.453125-23.339844-23.339844c0-12.890625 10.449219-23.34375 23.339844-23.34375s23.339844 10.453125 23.339844 23.34375zm0 0"/><path d="m195.902344 293.382812c0 12.890626-10.449219 23.339844-23.339844 23.339844s-23.339844-10.449218-23.339844-23.339844c0-12.890624 10.449219-23.339843 23.339844-23.339843s23.339844 10.449219 23.339844 23.339843zm0 0"/><path d="m242.480469 33.128906c0 12.886719-10.449219 23.339844-23.339844 23.339844s-23.339844-10.453125-23.339844-23.339844c0-12.890625 10.449219-23.34375 23.339844-23.34375s23.339844 10.453125 23.339844 23.34375zm0 0"/><path d="m242.480469 293.382812c0 12.890626-10.449219 23.339844-23.339844 23.339844s-23.339844-10.449218-23.339844-23.339844c0-12.890624 10.449219-23.339843 23.339844-23.339843s23.339844 10.449219 23.339844 23.339843zm0 0"/><path d="m315.992188 33.128906c0 12.886719-10.449219 23.339844-23.339844 23.339844s-23.339844-10.453125-23.339844-23.339844c0-12.890625 10.449219-23.34375 23.339844-23.34375s23.339844 10.453125 23.339844 23.34375zm0 0"/><path d="m315.992188 293.382812c0 12.890626-10.449219 23.339844-23.339844 23.339844s-23.339844-10.449218-23.339844-23.339844c0-12.890624 10.449219-23.339843 23.339844-23.339843s23.339844 10.449219 23.339844 23.339843zm0 0"/><path d="m362.671875 33.128906c0 12.886719-10.449219 23.339844-23.339844 23.339844s-23.339843-10.453125-23.339843-23.339844c0-12.890625 10.449218-23.34375 23.339843-23.34375s23.339844 10.453125 23.339844 23.34375zm0 0"/><path d="m362.671875 293.382812c0 12.890626-10.449219 23.339844-23.339844 23.339844s-23.339843-10.449218-23.339843-23.339844c0-12.890624 10.449218-23.339843 23.339843-23.339843s23.339844 10.449219 23.339844 23.339843zm0 0"/><path d="m105.828125 276.402344c0 12.890625-10.449219 23.339844-23.339844 23.339844-12.886719 0-23.339843-10.449219-23.339843-23.339844s10.453124-23.339844 23.339843-23.339844c12.890625 0 23.339844 10.449219 23.339844 23.339844zm0 0"/><path d="m55.964844 200.023438c0 12.890624-10.449219 23.339843-23.339844 23.339843s-23.339844-10.449219-23.339844-23.339843c0-12.890626 10.449219-23.339844 23.339844-23.339844s23.339844 10.449218 23.339844 23.339844zm0 0"/><path d="m72.945312 243.515625c0 12.890625-10.449218 23.339844-23.339843 23.339844s-23.339844-10.449219-23.339844-23.339844 10.449219-23.339844 23.339844-23.339844 23.339843 10.449219 23.339843 23.339844zm0 0"/></g><path d="m125.984375 9.785156c-.28125 0-.558594.011719-.835937.023438 2.628906 3.777344 4.175781 8.363281 4.175781 13.316406 0 12.609375-10 22.878906-22.5 23.320312 4.214843 6.054688 11.222656 10.019532 19.160156 10.019532 12.890625 0 23.339844-10.449219 23.339844-23.339844s-10.445313-23.339844-23.339844-23.339844zm0 0" fill="#7af4ab"/><path d="m82.488281 26.765625c-.277343 0-.558593.011719-.835937.019531 2.628906 3.78125 4.175781 8.367188 4.175781 13.320313 0 12.609375-10 22.878906-22.5 23.320312 4.214844 6.054688 11.222656 10.019531 19.160156 10.019531 12.890625 0 23.339844-10.449218 23.339844-23.339843.003906-12.890625-10.445313-23.339844-23.339844-23.339844zm0 0" fill="#7af4ab"/><path d="m32.625 103.148438c-.28125 0-.558594.007812-.835938.019531 2.632813 3.777343 4.175782 8.367187 4.175782 13.320312 0 12.609375-10 22.875-22.5 23.316407 4.214844 6.054687 11.222656 10.023437 19.160156 10.023437 12.890625 0 23.339844-10.449219 23.339844-23.339844s-10.449219-23.339843-23.339844-23.339843zm0 0" fill="#7af4ab"/><path d="m49.605469 59.652344c-.28125 0-.558594.007812-.839844.019531 2.632813 3.777344 4.179687 8.367187 4.179687 13.320313 0 12.609374-10 22.875-22.503906 23.316406 4.21875 6.054687 11.222656 10.023437 19.164063 10.023437 12.886719 0 23.339843-10.449219 23.339843-23.339843 0-12.890626-10.449218-23.339844-23.339843-23.339844zm0 0" fill="#7af4ab"/><path d="m125.984375 270.042969c-.28125 0-.558594.011719-.835937.019531 2.628906 3.777344 4.175781 8.367188 4.175781 13.320312 0 12.609376-10 22.875-22.5 23.316407 4.214843 6.058593 11.222656 10.023437 19.160156 10.023437 12.890625 0 23.339844-10.449218 23.339844-23.339844 0-12.890624-10.445313-23.339843-23.339844-23.339843zm0 0" fill="#7af4ab"/><path d="m172.5625 9.785156c-.28125 0-.558594.011719-.835938.023438 2.628907 3.777344 4.175782 8.363281 4.175782 13.316406 0 12.609375-10 22.878906-22.5 23.320312 4.214844 6.054688 11.222656 10.019532 19.160156 10.019532 12.890625 0 23.339844-10.449219 23.339844-23.339844s-10.449219-23.339844-23.339844-23.339844zm0 0" fill="#7af4ab"/><path d="m172.5625 270.042969c-.28125 0-.558594.011719-.835938.019531 2.628907 3.777344 4.175782 8.367188 4.175782 13.320312 0 12.609376-10 22.875-22.5 23.316407 4.214844 6.058593 11.222656 10.023437 19.160156 10.023437 12.890625 0 23.339844-10.449218 23.339844-23.339844 0-12.890624-10.449219-23.339843-23.339844-23.339843zm0 0" fill="#7af4ab"/><path d="m219.140625 9.785156c-.28125 0-.558594.011719-.835937.023438 2.628906 3.777344 4.175781 8.363281 4.175781 13.316406 0 12.609375-10 22.878906-22.503907 23.320312 4.21875 6.054688 11.226563 10.019532 19.164063 10.019532 12.890625 0 23.339844-10.449219 23.339844-23.339844s-10.449219-23.339844-23.339844-23.339844zm0 0" fill="#7af4ab"/><path d="m219.140625 270.042969c-.28125 0-.558594.011719-.835937.019531 2.628906 3.777344 4.175781 8.367188 4.175781 13.320312 0 12.609376-10 22.875-22.503907 23.316407 4.21875 6.058593 11.226563 10.023437 19.164063 10.023437 12.890625 0 23.339844-10.449218 23.339844-23.339844 0-12.890624-10.449219-23.339843-23.339844-23.339843zm0 0" fill="#7af4ab"/><path d="m82.488281 253.0625c-.277343 0-.558593.011719-.835937.019531 2.628906 3.777344 4.175781 8.367188 4.175781 13.320313 0 12.609375-10 22.875-22.5 23.320312 4.214844 6.054688 11.222656 10.019532 19.160156 10.019532 12.890625 0 23.339844-10.449219 23.339844-23.339844s-10.445313-23.339844-23.339844-23.339844zm0 0" fill="#7af4ab"/><path d="m32.625 176.679688c-.28125 0-.558594.011718-.835938.023437 2.628907 3.777344 4.175782 8.363281 4.175782 13.316406 0 12.609375-10 22.878907-22.5 23.320313 4.214844 6.054687 11.222656 10.019531 19.160156 10.019531 12.890625 0 23.339844-10.449219 23.339844-23.339844 0-12.886719-10.449219-23.339843-23.339844-23.339843zm0 0" fill="#7af4ab"/><path d="m49.605469 220.175781c-.28125 0-.558594.011719-.839844.023438 2.632813 3.777343 4.179687 8.363281 4.179687 13.316406 0 12.609375-10 22.878906-22.503906 23.320313 4.21875 6.054687 11.222656 10.019531 19.164063 10.019531 12.886719 0 23.339843-10.449219 23.339843-23.339844 0-12.886719-10.449218-23.339844-23.339843-23.339844zm0 0" fill="#7af4ab"/><path d="m409.355469 293.382812c0 12.890626-10.449219 23.339844-23.339844 23.339844s-23.339844-10.449218-23.339844-23.339844c0-12.890624 10.449219-23.339843 23.339844-23.339843s23.339844 10.449219 23.339844 23.339843zm0 0" fill="#a4f7c5"/><path d="m452.851562 276.402344c0 12.890625-10.453124 23.339844-23.339843 23.339844-12.890625 0-23.339844-10.449219-23.339844-23.339844s10.449219-23.339844 23.339844-23.339844c12.886719 0 23.339843 10.449219 23.339843 23.339844zm0 0" fill="#a4f7c5"/><path d="m502.714844 200.023438c0 12.890624-10.449219 23.339843-23.339844 23.339843s-23.339844-10.449219-23.339844-23.339843c0-12.890626 10.449219-23.339844 23.339844-23.339844s23.339844 10.449218 23.339844 23.339844zm0 0" fill="#a4f7c5"/><path d="m485.734375 243.515625c0 12.890625-10.449219 23.339844-23.339844 23.339844s-23.339843-10.449219-23.339843-23.339844 10.449218-23.339844 23.339843-23.339844 23.339844 10.449219 23.339844 23.339844zm0 0" fill="#a4f7c5"/><path d="m386.015625 9.785156c-.28125 0-.5625.011719-.839844.023438 2.632813 3.777344 4.179688 8.363281 4.179688 13.316406 0 12.609375-10.003907 22.878906-22.503907 23.320312 4.214844 6.054688 11.222657 10.019532 19.164063 10.019532 12.886719 0 23.339844-10.449219 23.339844-23.339844s-10.453125-23.339844-23.339844-23.339844zm0 0" fill="#7af4ab"/><path d="m429.511719 26.765625c-.28125 0-.5625.011719-.839844.019531 2.632813 3.78125 4.179687 8.367188 4.179687 13.320313 0 12.609375-10.003906 22.878906-22.503906 23.320312 4.214844 6.054688 11.222656 10.019531 19.160156 10.019531 12.890626 0 23.339844-10.449218 23.339844-23.339843.003906-12.890625-10.449218-23.339844-23.335937-23.339844zm0 0" fill="#7af4ab"/><path d="m479.375 103.148438c-.28125 0-.558594.007812-.839844.019531 2.632813 3.777343 4.179688 8.367187 4.179688 13.320312 0 12.609375-10 22.875-22.503906 23.316407 4.21875 6.054687 11.226562 10.023437 19.164062 10.023437 12.890625 0 23.339844-10.449219 23.339844-23.339844s-10.449219-23.339843-23.339844-23.339843zm0 0" fill="#7af4ab"/><path d="m462.394531 59.652344c-.28125 0-.558593.007812-.835937.019531 2.628906 3.777344 4.175781 8.367187 4.175781 13.320313 0 12.609374-10 22.875-22.503906 23.316406 4.21875 6.054687 11.226562 10.023437 19.164062 10.023437 12.890625 0 23.339844-10.449219 23.339844-23.339843 0-12.890626-10.449219-23.339844-23.339844-23.339844zm0 0" fill="#7af4ab"/><path d="m292.652344 9.785156c-.28125 0-.558594.011719-.835938.023438 2.628906 3.777344 4.175782 8.363281 4.175782 13.316406 0 12.609375-10 22.878906-22.503907 23.320312 4.21875 6.054688 11.226563 10.019532 19.164063 10.019532 12.890625 0 23.339844-10.449219 23.339844-23.339844s-10.449219-23.339844-23.339844-23.339844zm0 0" fill="#7af4ab"/><path d="m292.652344 270.042969c-.28125 0-.558594.011719-.835938.019531 2.628906 3.777344 4.175782 8.367188 4.175782 13.320312 0 12.609376-10 22.875-22.503907 23.316407 4.21875 6.058593 11.226563 10.023437 19.164063 10.023437 12.890625 0 23.339844-10.449218 23.339844-23.339844 0-12.890624-10.449219-23.339843-23.339844-23.339843zm0 0" fill="#7af4ab"/><path d="m339.332031 9.785156c-.28125 0-.558593.011719-.835937.023438 2.628906 3.777344 4.175781 8.363281 4.175781 13.316406 0 12.609375-10 22.878906-22.5 23.320312 4.214844 6.054688 11.222656 10.019532 19.160156 10.019532 12.890625 0 23.339844-10.449219 23.339844-23.339844s-10.449219-23.339844-23.339844-23.339844zm0 0" fill="#7af4ab"/><path d="m339.332031 270.042969c-.28125 0-.558593.011719-.835937.019531 2.628906 3.777344 4.175781 8.367188 4.175781 13.320312 0 12.609376-10 22.875-22.5 23.316407 4.214844 6.058593 11.222656 10.023437 19.160156 10.023437 12.890625 0 23.339844-10.449218 23.339844-23.339844 0-12.890624-10.449219-23.339843-23.339844-23.339843zm0 0" fill="#7af4ab"/><path d="m386.015625 270.042969c-.28125 0-.5625.011719-.839844.019531 2.632813 3.777344 4.179688 8.367188 4.179688 13.320312 0 12.609376-10.003907 22.875-22.503907 23.316407 4.214844 6.058593 11.222657 10.023437 19.164063 10.023437 12.886719 0 23.339844-10.449218 23.339844-23.339844 0-12.890624-10.453125-23.339843-23.339844-23.339843zm0 0" fill="#7af4ab"/><path d="m429.511719 253.0625c-.28125 0-.5625.011719-.839844.019531 2.632813 3.777344 4.179687 8.367188 4.179687 13.320313 0 12.609375-10.003906 22.875-22.503906 23.320312 4.214844 6.054688 11.222656 10.019532 19.160156 10.019532 12.890626 0 23.339844-10.449219 23.339844-23.339844s-10.449218-23.339844-23.335937-23.339844zm0 0" fill="#7af4ab"/><path d="m479.375 176.679688c-.28125 0-.558594.011718-.839844.023437 2.632813 3.777344 4.179688 8.363281 4.179688 13.316406 0 12.609375-10 22.878907-22.503906 23.320313 4.21875 6.054687 11.226562 10.019531 19.164062 10.019531 12.890625 0 23.339844-10.449219 23.339844-23.339844 0-12.886719-10.449219-23.339843-23.339844-23.339843zm0 0" fill="#7af4ab"/><path d="m462.394531 220.175781c-.28125 0-.558593.011719-.835937.023438 2.628906 3.777343 4.175781 8.363281 4.175781 13.316406 0 12.609375-10 22.878906-22.503906 23.320313 4.21875 6.054687 11.226562 10.019531 19.164062 10.019531 12.890625 0 23.339844-10.449219 23.339844-23.339844 0-12.886719-10.449219-23.339844-23.339844-23.339844zm0 0" fill="#7af4ab"/><path d="m251.050781 58.253906h9.671875c4.742188 0 8.589844-3.847656 8.589844-8.59375v-33.066406c0-4.746094-3.847656-8.59375-8.589844-8.59375h-9.671875c-4.746093 0-8.59375 3.847656-8.59375 8.59375v33.066406c.003907 4.746094 3.847657 8.59375 8.59375 8.59375zm0 0" fill="#ffe565"/><path d="m251.050781 320.425781h9.671875c4.742188 0 8.589844-3.847656 8.589844-8.59375v-34.984375c0-4.746094-3.847656-8.589844-8.589844-8.589844h-9.671875c-4.746093 0-8.59375 3.84375-8.59375 8.589844v34.984375c.003907 4.746094 3.847657 8.59375 8.59375 8.59375zm0 0" fill="#ffe565"/><path d="m7.5 158.417969v9.671875c0 4.746094 3.847656 8.59375 8.59375 8.59375h33.066406c4.746094 0 8.59375-3.847656 8.59375-8.59375v-9.671875c0-4.742188-3.847656-8.589844-8.59375-8.589844h-33.066406c-4.746094 0-8.59375 3.847656-8.59375 8.589844zm0 0" fill="#ffe565"/><path d="m454.246094 158.417969v9.671875c0 4.746094 3.847656 8.59375 8.59375 8.59375h33.070312c4.742188 0 8.589844-3.847656 8.589844-8.59375v-9.671875c0-4.742188-3.847656-8.589844-8.589844-8.589844h-33.070312c-4.746094 0-8.59375 3.847656-8.59375 8.589844zm0 0" fill="#ffe565"/><path d="m270.429688 344.367188c1.496093-2.867188 2.167968-6.230469 1.699218-9.785157-.976562-7.367187-7.003906-13.246093-14.390625-14.058593-9.882812-1.082032-18.242187 6.625-18.242187 16.289062 0 2.597656.605468 5.050781 1.683594 7.234375 1.835937 3.71875 2.976562 7.75 2.976562 11.898437v1.773438c0 4.246094-.847656 8.5-2.8125 12.265625-1.5 2.867187-2.171875 6.234375-1.699219 9.785156.972657 7.367188 7 13.246094 14.382813 14.058594 9.882812 1.085937 18.246094-6.625 18.246094-16.289063 0-2.597656-.605469-5.050781-1.683594-7.230468-1.839844-3.722656-2.980469-7.75-2.980469-11.902344v-1.769531c.003906-4.25.851563-8.5 2.820313-12.269531zm0 0" fill="#ffe565"/><path d="m276.167969 414.09375c0-11.382812-9.429688-20.5625-20.902344-20.15625-10.929687.390625-19.4375 9.703125-19.4375 20.640625v9.179687c0 1.980469 1.605469 3.585938 3.585937 3.585938h33.171876c1.976562 0 3.582031-1.605469 3.582031-3.585938zm0 0" fill="#ffe565"/><path d="m272.238281 427.339844 9.359375 61.605468c.171875 1.132813-.316406 2.265626-1.261718 2.914063-14.726563 10.125-34.171876 10.125-48.898438 0-.945312-.648437-1.433594-1.78125-1.261719-2.914063l9.359375-61.605468zm0 0" fill="#ebe1dc"/><path d="m281.597656 488.945312-9.359375-61.601562h-18.480469l7.839844 51.601562c.171875 1.132813-.316406 2.269532-1.261718 2.917969-9.011719 6.195313-19.789063 8.589844-30.171876 7.203125-.121093 1.09375.363282 2.167969 1.273438 2.796875 14.726562 10.121094 34.167969 10.121094 48.898438 0 .945312-.652343 1.433593-1.785156 1.261718-2.917969zm0 0" fill="#dcd2cd"/><path d="m512 168.089844v-9.671875c0-5.816407-3.113281-10.90625-7.75-13.734375 3.746094-5.105469 5.964844-11.394532 5.964844-18.195313 0-13.40625-8.601563-24.835937-20.570313-29.078125 2.289063-4.304687 3.589844-9.210937 3.589844-14.417968 0-17.664063-14.96875-31.996094-32.964844-30.761719 1.238281-18.050781-13.148437-32.964844-30.757812-32.964844-5.207031 0-10.117188 1.300781-14.421875 3.589844-4.242188-11.96875-15.667969-20.570313-29.074219-20.570313-9.320313 0-17.679687 4.164063-23.339844 10.71875-12.34375-14.292968-34.351562-14.28125-46.683593 0-10.625-12.308594-28.679688-14.183594-41.535157-4.753906-2.828125-4.636719-7.917969-7.75-13.734375-7.75h-9.445312c-5.8125 0-10.90625 3.113281-13.730469 7.75-12.859375-9.429688-30.914063-7.554688-41.539063 4.753906-12.332031-14.28125-34.339843-14.292968-46.683593 0-5.660157-6.554687-14.019531-10.71875-23.339844-10.71875-13.402344 0-24.832031 8.601563-29.074219 20.570313-4.304687-2.285157-9.214844-3.589844-14.421875-3.589844-17.609375 0-31.992187 14.914063-30.757812 32.964844-17.996094-1.234375-32.964844 13.097656-32.964844 30.761719 0 5.207031 1.300781 10.113281 3.589844 14.417968-11.96875 4.242188-20.570313 15.671875-20.570313 29.078125 0 6.800781 2.21875 13.089844 5.964844 18.195313-4.636719 2.828125-7.75 7.917968-7.75 13.734375v9.671875c0 5.816406 3.113281 10.90625 7.75 13.734375-3.746094 5.105469-5.964844 11.394531-5.964844 18.199219 0 13.402343 8.601563 24.832031 20.570313 29.074218-2.285157 4.304688-3.589844 9.210938-3.589844 14.421875 0 17.609375 14.910156 31.996094 32.964844 30.757813-1.234375 18.082031 13.175781 32.964844 30.757812 32.964844 5.210938 0 10.117188-1.300782 14.421875-3.589844 4.242188 11.96875 15.671875 20.570312 29.074219 20.570312 9.320313 0 17.679687-4.160156 23.339844-10.714844 12.332031 14.28125 34.339843 14.292969 46.683593 0 10.277344 11.90625 27.816407 14.21875 40.785157 5.289063.394531.8125.847656 1.589844 1.363281 2.320313l-.246094-.027344c-3.761718 4.308594-5.890625 9.859375-5.910156 15.632812-3.441406.683594-6.039062 3.714844-6.039062 7.355469 0 4.144531 3.355468 7.5 7.5 7.5h2.597656c.398437 1.492187.601562 2.953125.601562 4.371094 0 2.300781.0625 4.160156-.589844 6.828125h-2.609374c-4.140626 0-7.5 3.355468-7.5 7.5 0 3.644531 2.601562 6.679687 6.050781 7.355468.023437 6.0625 2.230469 11.429688 5.984375 15.675782-5.898438 5.199218-9.664063 12.863281-9.664063 21.269531v9.179687c0 2.929688 1.148438 5.585938 3.011719 7.570313l-1.273438 8.386719c-.625 4.097656 2.191407 7.921875 6.289063 8.542968 4.089844.625 7.917969-2.195312 8.539063-6.289062l1.082031-7.125h19.8125l7.949219 52.316406c-3.257813 1.878906-6.757813 3.1875-10.355469 3.949219v-27.449219c0-4.140625-3.355469-7.5-7.5-7.5s-7.5 3.359375-7.5 7.5v27.449219c-3.597657-.761719-7.097657-2.070313-10.355469-3.949219l1.609375-10.589844c.625-4.09375-2.191406-7.917968-6.285156-8.539062-4.09375-.625-7.921875 2.191406-8.542969 6.285156l-2.050781 13.503906c-.601563 3.949219 1.140625 7.960938 4.429687 10.222657 8.28125 5.695312 17.9375 8.632812 27.644532 8.832031.777343.109375 1.324218.109375 2.101562 0 9.707031-.199219 19.363281-3.136719 27.648438-8.832031 3.292968-2.265625 5.027343-6.277344 4.429687-10.222657l-8.550781-56.273437c1.980468-2.003906 3.207031-4.757813 3.207031-7.789063v-9.660156c0-8.074218-3.414063-15.632812-9.664063-21.003906 3.671876-4.285156 5.746094-9.765625 5.765626-15.464844 3.445312-.679687 6.039062-3.710937 6.039062-7.355468 0-4.140626-3.355469-7.5-7.5-7.5h-2.597656c-.398438-1.488282-.601563-2.949219-.601563-4.367188 0-2.347656-.058593-4.171875.589844-6.828125h2.609375c4.140625 0 7.5-3.359375 7.5-7.5 0-3.644531-2.601562-6.683594-6.050781-7.355469-.023438-6.117187-2.265625-11.445312-5.917969-15.605468.515625-.730469.96875-1.507813 1.363281-2.324219 12.96875 8.933593 30.507813 6.617187 40.785157-5.289063 12.34375 14.296875 34.351562 14.28125 46.683593 0 5.660157 6.554688 14.019531 10.71875 23.339844 10.71875 13.402344 0 24.832031-8.601562 29.074219-20.570312 4.304687 2.285156 9.214844 3.589844 14.421875 3.589844 17.582031 0 31.992187-14.882813 30.757812-32.96875 18.054688 1.238281 32.964844-13.144532 32.964844-30.757813 0-5.207031-1.300781-10.113281-3.589844-14.417969 11.96875-4.242187 20.570313-15.671875 20.570313-29.078125 0-6.800781-2.21875-13.089843-5.964844-18.195312 4.636719-2.828125 7.75-7.917969 7.75-13.734375zm-16.785156-41.601563c0 8.734375-7.105469 15.839844-15.839844 15.839844s-15.839844-7.105469-15.839844-15.839844 7.105469-15.839843 15.839844-15.839843 15.839844 7.105468 15.839844 15.839843zm-109.199219-109.203125c8.730469 0 15.839844 7.109375 15.839844 15.84375 0 8.730469-7.105469 15.839844-15.839844 15.839844-8.738281 0-15.839844-7.109375-15.839844-15.839844 0-8.734375 7.101563-15.84375 15.839844-15.84375zm-46.683594 0c8.734375 0 15.84375 7.109375 15.84375 15.84375 0 8.730469-7.109375 15.839844-15.84375 15.839844s-15.839843-7.109375-15.839843-15.839844c0-8.734375 7.105468-15.84375 15.839843-15.84375zm-46.679687 0c8.734375 0 15.839844 7.109375 15.839844 15.84375 0 8.730469-7.105469 15.839844-15.839844 15.839844s-15.839844-7.109375-15.839844-15.839844c0-8.734375 7.105469-15.84375 15.839844-15.84375zm-42.464844-.691406c0-.605469.488281-1.09375 1.089844-1.09375h9.445312c.601563 0 1.089844.488281 1.089844 1.09375v33.066406c0 .601563-.488281 1.09375-1.089844 1.09375h-9.445312c-.601563 0-1.089844-.492187-1.089844-1.09375zm-30.839844.691406c8.734375 0 15.839844 7.109375 15.839844 15.84375 0 8.730469-7.105469 15.839844-15.839844 15.839844s-15.839844-7.109375-15.839844-15.839844c0-8.734375 7.105469-15.84375 15.839844-15.84375zm-46.679687 0c8.734375 0 15.839843 7.109375 15.839843 15.84375 0 8.730469-7.105468 15.839844-15.839843 15.839844s-15.84375-7.109375-15.84375-15.839844c0-8.734375 7.109375-15.84375 15.84375-15.84375zm-46.683594 0c8.734375 0 15.839844 7.109375 15.839844 15.84375 0 8.730469-7.101563 15.839844-15.839844 15.839844-8.734375 0-15.839844-7.109375-15.839844-15.839844 0-8.734375 7.109375-15.84375 15.839844-15.84375zm-93.359375 93.363282c8.734375 0 15.839844 7.105468 15.839844 15.839843s-7.105469 15.839844-15.839844 15.839844-15.839844-7.105469-15.839844-15.839844 7.105469-15.839843 15.839844-15.839843zm-17.625 57.441406v-9.671875c0-.601563.488281-1.089844 1.09375-1.089844h33.066406c.601563 0 1.09375.488281 1.09375 1.089844v9.671875c0 .601562-.492187 1.09375-1.09375 1.09375h-33.066406c-.605469 0-1.09375-.492188-1.09375-1.09375zm1.785156 31.933594c0-8.734376 7.105469-15.839844 15.839844-15.839844s15.839844 7.105468 15.839844 15.839844c0 8.734374-7.105469 15.839843-15.839844 15.839843s-15.839844-7.105469-15.839844-15.839843zm109.199219 109.199218c-8.730469 0-15.839844-7.105468-15.839844-15.839844 0-8.734374 7.105469-15.839843 15.839844-15.839843 8.738281 0 15.839844 7.105469 15.839844 15.839843 0 8.734376-7.101563 15.839844-15.839844 15.839844zm46.683594 0c-8.734375 0-15.84375-7.105468-15.84375-15.839844 0-8.734374 7.109375-15.839843 15.84375-15.839843s15.839843 7.105469 15.839843 15.839843c0 8.734376-7.105468 15.839844-15.839843 15.839844zm46.679687 0c-8.734375 0-15.839844-7.105468-15.839844-15.839844 0-8.734374 7.105469-15.839843 15.839844-15.839843s15.839844 7.105469 15.839844 15.839843c0 8.734376-7.105469 15.839844-15.839844 15.839844zm49.324219 110.617188h-25.34375v-5.261719c0-7.007813 5.476563-12.90625 12.203125-13.144531 7.265625-.253906 13.140625 5.542968 13.140625 12.660156zm-12.78125-91.914063c4.636719 0 8.253906 3.496094 8.800781 7.640625.046875.335938.050782.675782.058594 1.011719h-17.742188c.128907-4.753906 3.984376-8.652344 8.882813-8.652344zm-5.703125-16.09375v-34.984375c0-.601562.488281-1.089844 1.089844-1.089844h9.445312c.601563 0 1.089844.488282 1.089844 1.089844v34.984375c0 .601563-.488281 1.09375-1.089844 1.09375h-9.445312c-.601563 0-1.089844-.492187-1.089844-1.09375zm1.148438 39.746094h9.121093c-.21875 1.640625-.34375 3.324219-.34375 5.058594 0 2.078125-.042969 3.558593.324219 6.136719h-9.132812c.226562-1.652344.355468-3.339844.355468-5.054688 0-2.078125.042969-3.5625-.324218-6.140625zm13.425781 26.195313c-.132813 5.054687-4.503907 9.195312-9.914063 8.597656-3.976562-.4375-7.242187-3.625-7.769531-7.585938-.042969-.339844-.050781-.675781-.058594-1.011718zm27.890625-68.550782c-8.734375 0-15.839844-7.105468-15.839844-15.839844 0-8.734374 7.105469-15.839843 15.839844-15.839843s15.839844 7.105469 15.839844 15.839843c0 8.734376-7.105469 15.839844-15.839844 15.839844zm46.679687 0c-8.734375 0-15.839843-7.105468-15.839843-15.839844 0-8.734374 7.105468-15.839843 15.839843-15.839843s15.84375 7.105469 15.84375 15.839843c0 8.734376-7.109375 15.839844-15.84375 15.839844zm46.683594 0c-8.734375 0-15.839844-7.105468-15.839844-15.839844 0-8.734374 7.101563-15.839843 15.839844-15.839843 8.734375 0 15.839844 7.105469 15.839844 15.839843 0 8.734376-7.109375 15.839844-15.839844 15.839844zm14.417969-43.089844c-12.574219-6.683593-28.246094-3.894531-37.757813 7.125-12.34375-14.292968-34.351562-14.28125-46.683593 0-10.621094-12.304687-28.675782-14.1875-41.539063-4.753906-2.824219-4.636718-7.914063-7.75-13.730469-7.75h-9.445312c-5.816406 0-10.90625 3.113282-13.734375 7.75-12.859375-9.433594-30.914063-7.550781-41.535157 4.753906-12.332031-14.28125-34.339843-14.292968-46.683593 0-9.511719-11.019531-25.1875-13.808593-37.757813-7.125-4.46875-12.609374-16.90625-21.46875-31.203125-20.488281.980469-14.308593-7.890625-26.738281-20.488281-31.203125 5.386719-10.132812 4.804688-22.832031-2.371094-32.617187 4.632813-2.828125 7.746094-7.917969 7.746094-13.734375v-9.671875c0-5.816407-3.109375-10.90625-7.746094-13.734375 7.175782-9.785156 7.757813-22.484375 2.371094-32.617188 12.605469-4.46875 21.46875-16.90625 20.488281-31.203125 14.308594.980469 26.738281-7.890625 31.203125-20.488281 12.589844 6.691406 28.261719 3.875 37.757813-7.125 12.332031 14.28125 34.339843 14.292969 46.683593 0 10.617188 12.300781 28.671876 14.1875 41.535157 4.753906 2.828125 4.636719 7.917969 7.75 13.734375 7.75h9.445312c5.8125 0 10.90625-3.113281 13.730469-7.75 12.863281 9.433594 30.917969 7.546875 41.539063-4.753906 12.34375 14.292969 34.351562 14.28125 46.683593 0 9.496094 11 25.167969 13.816406 37.757813 7.125 4.464844 12.597656 16.890625 21.46875 31.203125 20.488281-.980469 14.300781 7.878906 26.734375 20.488281 31.203125-5.386719 10.132813-4.804688 22.832032 2.371094 32.617188-4.636719 2.828125-7.75 7.917968-7.75 13.734375v9.671875c0 5.816406 3.113281 10.90625 7.75 13.734375-7.175782 9.785156-7.757813 22.480469-2.371094 32.617187-12.597656 4.464844-21.46875 16.894532-20.488281 31.203125-14.300781-.980469-26.734375 7.878907-31.203125 20.488281zm78.941406-50.269531c-8.734375 0-15.839844-7.105469-15.839844-15.839843 0-8.734376 7.105469-15.839844 15.839844-15.839844s15.839844 7.105468 15.839844 15.839844c0 8.734374-7.105469 15.839843-15.839844 15.839843zm17.625-47.773437c0 .601562-.488281 1.09375-1.09375 1.09375h-33.066406c-.601563 0-1.09375-.492188-1.09375-1.09375v-9.671875c0-.601563.492187-1.089844 1.09375-1.089844h33.066406c.605469 0 1.09375.488281 1.09375 1.089844zm-414.507812-133.824219c8.734374 0 15.839843 7.105469 15.839843 15.839844s-7.105469 15.839843-15.839843 15.839843c-8.734376 0-15.839844-7.105468-15.839844-15.839843s7.105468-15.839844 15.839844-15.839844zm-32.886719 32.886719c8.734375 0 15.839843 7.105468 15.839843 15.839844 0 8.734374-7.105468 15.839843-15.839843 15.839843s-15.839844-7.105469-15.839844-15.839843c0-8.734376 7.105469-15.839844 15.839844-15.839844zm-15.839844 176.363281c0-8.734375 7.105469-15.839844 15.839844-15.839844s15.839843 7.105469 15.839843 15.839844-7.105468 15.839844-15.839843 15.839844-15.839844-7.101563-15.839844-15.839844zm32.886719 32.886719c0-8.734375 7.105468-15.839844 15.839844-15.839844 8.734374 0 15.839843 7.105469 15.839843 15.839844s-7.105469 15.839844-15.839843 15.839844c-8.734376 0-15.839844-7.105469-15.839844-15.839844zm378.46875-226.296875c0 8.734375-7.105469 15.839843-15.839844 15.839843s-15.839844-7.105468-15.839844-15.839843 7.105469-15.839844 15.839844-15.839844 15.839844 7.105469 15.839844 15.839844zm32.886718 32.886719c0 8.734374-7.105468 15.839843-15.84375 15.839843-8.734374 0-15.839843-7.105469-15.839843-15.839843 0-8.734376 7.105469-15.839844 15.839843-15.839844 8.738282 0 15.84375 7.105468 15.84375 15.839844zm-15.84375 176.363281c-8.730468 0-15.839843-7.105469-15.839843-15.839844s7.105469-15.839844 15.839843-15.839844c8.738282 0 15.84375 7.105469 15.84375 15.839844 0 8.738281-7.109374 15.839844-15.84375 15.839844zm-32.882812 32.886719c-8.734375 0-15.839844-7.105469-15.839844-15.839844s7.105469-15.839844 15.839844-15.839844 15.839844 7.105469 15.839844 15.839844-7.105469 15.839844-15.839844 15.839844zm0 0"/></svg>